<svg width="354" height="419" viewBox="0 0 354 419" fill="none" xmlns="http://www.w3.org/2000/svg">
<path d="M120.953 2.39858C121.341 1.75124 122.28 1.75124 122.668 2.39858L242.045 201.36C242.445 202.027 241.965 202.875 241.187 202.875H2.43349C1.65619 202.875 1.17607 202.027 1.57599 201.36L120.953 2.39858Z" fill="#82DBC5"/>
<path id="square" d="M172.285 123.113C172.285 122.561 172.733 122.113 173.285 122.113H353C353.552 122.113 354 122.561 354 123.113V302.828C354 303.38 353.552 303.828 353 303.828H173.285C172.733 303.828 172.285 303.38 172.285 302.828V123.113Z" fill="#4F4F4F"/>
<circle cx="177.334" cy="322.182" r="96.3639" fill="#EFAC35"/>
<style>
  #square { fill: #4F4F4F; }
  @media (prefers-color-scheme: dark) {
      #square { fill: #f4f4f4; }
  }
</style>
</svg>
