<svg width="105" height="83" viewBox="0 0 105 83" fill="none" xmlns="http://www.w3.org/2000/svg">
<mask id="path-1-inside-1_1485_432" fill="white">
<rect x="16.9511" y="5.82983" width="92" height="38" rx="3" transform="rotate(22.2855 16.9511 5.82983)"/>
</mask>
<rect x="16.9511" y="5.82983" width="92" height="38" rx="3" transform="rotate(22.2855 16.9511 5.82983)" stroke="#FF0000" stroke-width="8" mask="url(#path-1-inside-1_1485_432)"/>
<path d="M41.7051 32.9145L38.172 31.4665L38.6164 30.3821C38.8238 29.8761 38.9107 29.5353 38.8771 29.3597C38.8435 29.1841 38.7213 29.0531 38.5105 28.9667C38.2816 28.8729 38.0686 28.8947 37.8716 29.032C37.6806 29.1719 37.5073 29.4316 37.3518 29.8111C37.1518 30.299 37.0675 30.6937 37.0988 30.995C37.124 31.2938 37.3603 31.7389 37.8074 32.3303C39.0879 34.03 39.8159 35.2923 39.9915 36.1172C40.1671 36.942 39.9611 38.0712 39.3735 39.505C38.9464 40.5472 38.5081 41.2646 38.0587 41.6574C37.6153 42.0526 36.975 42.2757 36.138 42.3266C35.3034 42.3716 34.4222 42.2039 33.4945 41.8237C32.4764 41.4065 31.685 40.857 31.1201 40.1751C30.5612 39.4958 30.2926 38.8123 30.3141 38.1245C30.3356 37.4368 30.571 36.5447 31.0204 35.4483L31.4129 34.4905L34.9461 35.9385L34.2165 37.7186C33.9919 38.2668 33.8956 38.639 33.9278 38.8351C33.966 39.0337 34.1116 39.1849 34.3647 39.2886C34.6177 39.3923 34.8452 39.3694 35.0471 39.22C35.2551 39.073 35.4393 38.8038 35.5998 38.4122C35.9529 37.5507 36.0662 36.9393 35.9399 36.578C35.8076 36.2142 35.3957 35.5282 34.7042 34.5201C34.0152 33.506 33.575 32.7944 33.3839 32.3854C33.1927 31.9763 33.0971 31.4798 33.0972 30.8959C33.1033 30.3144 33.2656 29.6351 33.5841 28.858C34.0433 27.7375 34.5207 26.9762 35.0161 26.5742C35.5176 26.1746 36.1469 25.9611 36.904 25.9337C37.6635 25.9002 38.4951 26.0686 39.3987 26.439C40.3866 26.8439 41.1616 27.3479 41.7235 27.9511C42.2915 28.5568 42.5869 29.1493 42.6098 29.7286C42.6412 30.3043 42.4187 31.1735 41.9422 32.3362L41.7051 32.9145ZM50.2199 41.2378C49.6175 42.7077 49.1542 43.7351 48.8301 44.3199C48.5145 44.9012 48.0692 45.3696 47.4944 45.725C46.9256 46.0829 46.2753 46.2702 45.5438 46.287C44.8122 46.3038 44.0337 46.1431 43.2084 45.8048C42.4253 45.4839 41.7723 45.0685 41.2495 44.5587C40.7352 44.0454 40.3932 43.4549 40.2235 42.7873C40.0539 42.1197 40.0563 41.4699 40.2309 40.8379C40.4055 40.2059 40.8014 39.1368 41.4187 37.6308L42.4445 35.1278C43.0469 33.6579 43.5059 32.6323 43.8215 32.051C44.1457 31.4662 44.5921 30.9948 45.161 30.6369C45.7358 30.2815 46.389 30.0954 47.1206 30.0786C47.8522 30.0618 48.6307 30.2225 49.456 30.5608C50.2391 30.8817 50.8878 31.2989 51.4022 31.8122C51.925 32.322 52.2712 32.9107 52.4409 33.5783C52.6105 34.2459 52.6081 34.8957 52.4335 35.5277C52.2589 36.1597 51.863 37.2288 51.2457 38.7348L50.2199 41.2378ZM48.3858 34.8715C48.6648 34.1908 48.8034 33.741 48.8017 33.5221C48.8084 33.2997 48.6943 33.1404 48.4593 33.0441C48.2605 32.9626 48.0748 32.978 47.9022 33.0902C47.7381 33.1988 47.5017 33.6296 47.1931 34.3826L44.3933 41.214C44.0452 42.0634 43.8636 42.6011 43.8484 42.827C43.8392 43.0555 43.9611 43.2215 44.2141 43.3252C44.4731 43.4314 44.6857 43.3848 44.8518 43.1855C45.0179 42.9862 45.2775 42.4559 45.6306 41.5944L48.3858 34.8715ZM60.3404 45.3856C59.738 46.8555 59.2748 47.8828 58.9506 48.4677C58.635 49.0489 58.1898 49.5173 57.6149 49.8727C57.0461 50.2306 56.3959 50.418 55.6643 50.4347C54.9327 50.4515 54.1543 50.2908 53.329 49.9526C52.5458 49.6316 51.8928 49.2162 51.37 48.7065C50.8557 48.1931 50.5137 47.6027 50.344 46.9351C50.1744 46.2675 50.1769 45.6177 50.3515 44.9856C50.5261 44.3536 50.922 43.2846 51.5392 41.7785L52.565 39.2755C53.1674 37.8056 53.6264 36.78 53.9421 36.1988C54.2662 35.6139 54.7127 35.1426 55.2815 34.7847C55.8564 34.4292 56.5096 34.2431 57.2412 34.2263C57.9727 34.2096 58.7512 34.3703 59.5765 34.7085C60.3596 35.0295 61.0084 35.4466 61.5227 35.96C62.0455 36.4697 62.3917 37.0584 62.5614 37.726C62.7311 38.3936 62.7286 39.0434 62.554 39.6755C62.3794 40.3075 61.9835 41.3765 61.3663 42.8826L60.3404 45.3856ZM58.5064 39.0192C58.7854 38.3385 58.924 37.8887 58.9222 37.6699C58.9289 37.4475 58.8148 37.2881 58.5799 37.1918C58.3811 37.1104 58.1953 37.1257 58.0227 37.2379C57.8586 37.3465 57.6222 37.7774 57.3136 38.5304L54.5139 45.3617C54.1658 46.2111 53.9841 46.7488 53.9689 46.9748C53.9597 47.2032 54.0816 47.3693 54.3346 47.4729C54.5937 47.5791 54.8062 47.5325 54.9724 47.3333C55.1385 47.134 55.398 46.6036 55.7511 45.7421L58.5064 39.0192ZM73.7729 40.8855L67.7772 55.5151L64.4429 54.1486L65.1896 46.6869L62.4639 53.3376L59.2832 52.034L65.2789 37.4044L68.4597 38.708L67.8925 46.1694L70.5922 39.582L73.7729 40.8855Z" fill="#FF0000"/>
</svg>
