<svg width="934" height="1053" viewBox="0 0 934 1053" fill="none" xmlns="http://www.w3.org/2000/svg">
<path d="M361.256 41.83C379.138 20.3928 413.4 25.751 423.883 51.6239L524.633 300.294L893.481 357.977C900.831 359.126 905.857 366.016 904.708 373.366L841.049 780.429C839.899 787.779 833.009 792.805 825.66 791.656L622.625 759.904C607.951 782.205 588.574 803.305 565.279 824.187C517.931 866.632 453.198 909.226 376.317 959.801L376.318 959.802L332.876 988.501L325.274 993.522L319.568 986.419L286.962 945.828L286.962 945.827C229.193 874.195 180.556 813.872 148.428 758.998C116.209 703.97 99.7492 653.056 107.994 600.336C114.096 561.315 133.396 528.291 160.651 505.02L169.626 447.629L104.203 437.397C75.8077 432.957 63.1426 399.228 81.5419 377.17L361.256 41.83Z" fill="white" stroke="white" stroke-width="20"/>
<path d="M366.879 83.6414C377.937 70.3926 399.127 73.7064 405.613 89.6989L544.699 432.648C551.377 449.115 537.539 466.571 519.983 463.826L143.746 404.987C126.191 402.242 118.342 381.394 129.729 367.753L366.879 83.6414Z" fill="#82DBC5"/>
<path fill-rule="evenodd" clip-rule="evenodd" d="M507.4 334.778C505.218 334.437 503.172 335.93 502.83 338.112L447.553 691.58C447.211 693.763 448.704 695.809 450.887 696.15L804.355 751.427C806.537 751.769 808.583 750.276 808.925 748.093L864.202 394.626C864.543 392.443 863.051 390.397 860.868 390.056L507.4 334.778ZM516.711 645.129C514.528 644.788 512.482 646.28 512.141 648.463C511.8 650.646 513.292 652.692 515.475 653.033L758.273 691.003C760.455 691.344 762.501 689.852 762.843 687.669C763.184 685.487 761.691 683.44 759.509 683.099L516.711 645.129ZM608.447 535.685C605.131 556.891 585.252 571.393 564.047 568.077C542.842 564.76 528.34 544.882 531.656 523.676C534.972 502.471 554.851 487.969 576.056 491.285C597.262 494.601 611.764 514.48 608.447 535.685ZM737.957 595.274C759.163 598.59 779.041 584.088 782.357 562.882C785.674 541.677 771.172 521.798 749.966 518.482C728.761 515.166 708.882 529.668 705.566 550.873C702.25 572.079 716.752 591.957 737.957 595.274Z" fill="#4F4F4F"/>
<path fill-rule="evenodd" clip-rule="evenodd" d="M507.4 334.778C505.218 334.437 503.172 335.93 502.83 338.112L447.553 691.58C447.211 693.763 448.704 695.809 450.887 696.15L804.355 751.427C806.537 751.769 808.583 750.276 808.925 748.093L864.202 394.626C864.543 392.443 863.051 390.397 860.868 390.056L507.4 334.778ZM516.711 645.129C514.528 644.788 512.482 646.28 512.141 648.463C511.8 650.646 513.292 652.692 515.475 653.033L758.273 691.003C760.455 691.344 762.501 689.852 762.843 687.669C763.184 685.487 761.691 683.44 759.509 683.099L516.711 645.129ZM608.447 535.685C605.131 556.891 585.252 571.393 564.047 568.077C542.842 564.76 528.34 544.882 531.656 523.676C534.972 502.471 554.851 487.969 576.056 491.285C597.262 494.601 611.764 514.48 608.447 535.685ZM737.957 595.274C759.163 598.59 779.041 584.088 782.357 562.882C785.674 541.677 771.172 521.798 749.966 518.482C728.761 515.166 708.882 529.668 705.566 550.873C702.25 572.079 716.752 591.957 737.957 595.274Z" fill="black" fill-opacity="0.2"/>
<path fill-rule="evenodd" clip-rule="evenodd" d="M507.4 334.778C505.218 334.437 503.172 335.93 502.83 338.112L447.553 691.58C447.211 693.763 448.704 695.809 450.887 696.15L804.355 751.427C806.537 751.769 808.583 750.276 808.925 748.093L864.202 394.626C864.543 392.443 863.051 390.397 860.868 390.056L507.4 334.778ZM516.711 645.129C514.528 644.788 512.482 646.28 512.141 648.463C511.8 650.646 513.292 652.692 515.475 653.033L758.273 691.003C760.455 691.344 762.501 689.852 762.843 687.669C763.184 685.487 761.691 683.44 759.509 683.099L516.711 645.129ZM608.447 535.685C605.131 556.891 585.252 571.393 564.047 568.077C542.842 564.76 528.34 544.882 531.656 523.676C534.972 502.471 554.851 487.969 576.056 491.285C597.262 494.601 611.764 514.48 608.447 535.685ZM737.957 595.274C759.163 598.59 779.041 584.088 782.357 562.882C785.674 541.677 771.172 521.798 749.966 518.482C728.761 515.166 708.882 529.668 705.566 550.873C702.25 572.079 716.752 591.957 737.957 595.274Z" fill="black" fill-opacity="0.2"/>
<path fill-rule="evenodd" clip-rule="evenodd" d="M332.593 946.736L304.568 911.85C204.969 788.358 139.239 706.673 152.538 621.633C163.438 551.932 226.482 506.1 295.901 516.956C335.118 523.089 369.9 547.246 389.987 579.736C419.033 554.93 459.53 542.545 498.747 548.678C568.165 559.534 614.207 622.426 603.307 692.127C590.008 777.167 502.477 834.884 369.93 922.072L332.593 946.736ZM331.629 705.09C329.162 720.865 314.384 731.656 298.621 729.191C282.858 726.726 272.08 711.938 274.547 696.163C277.014 680.387 291.793 669.597 307.555 672.062C323.318 674.527 334.097 689.314 331.629 705.09ZM434.531 750.445C450.294 752.91 465.073 742.12 467.54 726.344C470.007 710.568 459.228 695.781 443.466 693.316C427.703 690.851 412.924 701.641 410.457 717.417C407.99 733.193 418.769 747.98 434.531 750.445Z" fill="#FBB03B"/>
</svg>
